#!OML:ASF G:\ViconDB\ViconDB\414\test\team2\shane.ASF
:FULLY-SPECIFIED
:DEGREES
161
root 5.4493 17.0735 -16.5399 -2.78365 2.24615 -8.66003
lowerback 9.76076 0.529894 4.17532
upperback 2.23517 1.18418 1.63327
thorax -3.09594 0.562746 -0.798336
lowerneck -21.4858 0.0136395 -3.31912
upperneck 17.898 -0.712493 7.92989
head 9.2174 0.350978 3.20088
rclavicle -1.89342e-014 -1.23246e-014
rhumerus -49.7046 3.36057 289.364
rradius 34.1597
rwrist 33.6183
rhand -31.1376 -15.3922
rfingers 7.12502
rthumb -4.41602 -45.3261
lclavicle -1.89342e-014 -1.23246e-014
lhumerus -235.98 -169.235 255.072
lradius 21.0407
lwrist -17.6387
lhand -34.5171 7.84429
lfingers 7.12502
lthumb -7.67867 37.6849
rfemur 7.99548 -16.3076 15.3659
rtibia 16.3769
rfoot -8.22144 -7.0046
rtoes -10.1892
lfemur 4.91465 11.7933 -4.13985
ltibia 24.9925
lfoot -24.7266 -6.77784
ltoes -9.96366
162
root 5.46843 17.0088 -16.5512 -2.66386 2.35604 -8.67449
lowerback 9.64635 0.585194 4.18941
upperback 2.19795 1.25733 1.72568
thorax -3.06999 0.599244 -0.71774
lowerneck -21.5993 -0.0624358 -3.44248
upperneck 17.8849 -0.741326 7.77928
head 9.23362 0.313347 3.16575
rclavicle -2.6339e-015 5.1684e-015
rhumerus -46.4586 1.56446 291.347
rradius 33.5455
rwrist 35.734
rhand -31.7333 -15.3034
rfingers 7.12502
rthumb -4.99117 -45.2246
lclavicle -2.6339e-015 5.1684e-015
lhumerus -233.017 -169.994 253.814
lradius 20.2707
lwrist -19.6265
lhand -34.896 7.60322
lfingers 7.12502
lthumb -8.04437 37.4301
rfemur 8.41379 -17.066 15.1574
rtibia 15.4419
rfoot -8.78823 -6.53734
rtoes -10.1155
lfemur 4.93132 11.8641 -4.21064
ltibia 24.7917
lfoot -25.7229 -6.73598
ltoes -8.99022
163
root 5.49483 16.9549 -16.5646 -2.55903 2.36312 -8.65333
lowerback 9.70157 0.598866 4.40605
upperback 2.01181 1.30432 1.63344
thorax -3.28502 0.614298 -0.942744
lowerneck -21.5024 -0.0287542 -3.11548
upperneck 17.9939 -0.737741 7.47157
head 9.25177 0.302409 3.00516
rclavicle -1.98785e-015 9.93923e-015
rhumerus -43.4012 -0.701508 292.817
rradius 32.9179
rwrist 37.1871
rhand -32.2224 -15.5091
rfingers 7.12502
rthumb -5.46349 -45.4186
lclavicle -1.98785e-015 9.93923e-015
lhumerus -230.708 -169.441 253.608
lradius 20.12
lwrist -20.0048
lhand -35.1807 8.00672
lfingers 7.12502
lthumb -8.31913 37.8229
rfemur 8.87851 -17.1727 15.0579
rtibia 14.3081
rfoot -9.29878 -6.6626
rtoes -9.33959
lfemur 4.88692 11.9263 -4.42798
ltibia 24.7331
lfoot -26.6608 -6.37512
ltoes -8.0644
164
root 5.518 16.9127 -16.5728 -2.44787 2.39342 -8.45493
lowerback 9.57231 0.686392 4.26581
upperback 1.93565 1.40141 1.62297
thorax -3.29125 0.662669 -0.885273
lowerneck -21.7042 -0.128936 -3.31701
upperneck 18.2579 -0.840605 7.55011
head 9.38672 0.255532 3.06078
rclavicle -2.92213e-014 -1.11319e-014
rhumerus -40.431 -3.26277 294.367
rradius 32.2723
rwrist 39.6818
rhand -32.426 -15.4667
rfingers 7.12502
rthumb -5.66007 -45.3711
lclavicle -2.92213e-014 -1.11319e-014
lhumerus -227.791 -170.063 252.804
lradius 19.268
lwrist -22.0885
lhand -35.8371 8.13463
lfingers 7.12502
lthumb -8.95265 37.9247
rfemur 9.42468 -17.1436 14.8119
rtibia 13.0323
rfoot -9.72083 -6.88882
rtoes -8.5025
lfemur 4.75268 12.6062 -4.73757
ltibia 24.7934
lfoot -27.4161 -6.27033
ltoes -7.95759
165
root 5.53932 16.8857 -16.5857 -2.31916 2.45464 -8.38879
lowerback 9.39691 0.682461 4.11174
upperback 1.87183 1.3772 1.72226
thorax -3.26778 0.652149 -0.690755
lowerneck -21.8097 -0.0783816 -3.11509
upperneck 18.4611 -0.737597 7.08263
head 9.46644 0.267282 2.88291
rclavicle -2.9122e-014 -6.36111e-015
rhumerus -37.4249 -6.27849 295.659
rradius 31.6271
rwrist 41.7906
rhand -32.7667 -15.1955
rfingers 7.12502
rthumb -5.989 -45.0908
lclavicle -2.9122e-014 -6.36111e-015
lhumerus -224.792 -171.498 252.006
lradius 18.2972
lwrist -23.9998
lhand -36.6722 8.74936
lfingers 7.12502
lthumb -9.75837 38.5033
rfemur 9.96296 -17.3375 14.7855
rtibia 11.5447
rfoot -9.69794 -7.16557
rtoes -7.97848
lfemur 4.55583 13.1291 -4.91684
ltibia 24.9166
lfoot -27.9302 -6.2059
ltoes -7.53856
166
root 5.55619 16.8711 -16.5968 -2.25378 2.51934 -8.32825
lowerback 9.35145 0.65687 4.05225
upperback 1.69492 1.34144 1.71433
thorax -3.42931 0.630158 -0.662185
lowerneck -21.7251 0.0231181 -3.07882
upperneck 18.7902 -0.623036 7.06569
head 9.55966 0.323105 2.89367
rclavicle 1.5704e-014 1.43125e-014
rhumerus -34.9996 -9.24171 296.384
rradius 31.175
rwrist 44.4271
rhand -33.2187 -15.9613
rfingers 7.12502
rthumb -6.42539 -45.8438
lclavicle 1.5704e-014 1.43125e-014
lhumerus -221.855 -173.786 250.653
lradius 17.0611
lwrist -27.1585
lhand -37.466 9.08139
lfingers 7.12502
lthumb -10.5242 38.7979
rfemur 10.5608 -17.0626 14.9227
rtibia 10.0647
rfoot -9.5672 -8.02953
rtoes -7.63372
lfemur 4.40124 13.27 -5.07594
ltibia 25.0503
lfoot -28.1427 -6.18976
ltoes -7.42476
167
root 5.57878 16.8734 -16.6082 -2.29921 2.42868 -8.23158
lowerback 9.16453 0.722487 3.88491
upperback 1.62028 1.40696 1.77134
thorax -3.40606 0.664358 -0.514658
lowerneck -21.3474 0.0910702 -2.90569
upperneck 18.861 -0.52987 6.7919
head 9.50961 0.341859 2.77822
rclavicle 1.60022e-014 3.77691e-014
rhumerus -32.8154 -11.026 296.33
rradius 31.2347
rwrist 44.2089
rhand -33.4665 -16.6172
rfingers 7.12502
rthumb -6.66454 -46.4923
lclavicle 1.60022e-014 3.77691e-014
lhumerus -219.159 -175.245 250.419
lradius 16.2308
lwrist -29.0145
lhand -38.316 10.0099
lfingers 7.12502
lthumb -11.344 39.6831
rfemur 11.2117 -16.9526 14.8846
rtibia 8.73097
rfoot -9.20266 -8.45469
rtoes -7.24965
lfemur 4.41733 13.4968 -5.21032
ltibia 25.1807
lfoot -28.2355 -6.3218
ltoes -7.2993
168
root 5.59866 16.8872 -16.6209 -2.32889 2.36595 -8.04065
lowerback 9.28761 0.776974 3.91121
upperback 1.38766 1.48908 1.56665
thorax -3.70735 0.69605 -0.755688
lowerneck -21.0494 0.126804 -2.61677
upperneck 19.1536 -0.583183 6.75873
head 9.5618 0.333405 2.71394
rclavicle -1.99779e-014 -1.15295e-014
rhumerus -30.9465 -14.2034 296.098
rradius 30.7514
rwrist 45.9755
rhand -34.2932 -17.5628
rfingers 7.12502
rthumb -7.46256 -47.4112
lclavicle -1.99779e-014 -1.15295e-014
lhumerus -216.765 -176.743 249.957
lradius 15.7475
lwrist -31.0082
lhand -39.1313 10.6849
lfingers 7.12502
lthumb -12.1303 40.3133
rfemur 11.6486 -16.8583 14.7029
rtibia 7.72568
rfoot -8.64639 -8.77954
rtoes -6.86032
lfemur 4.4242 14.1548 -5.25463
ltibia 25.239
lfoot -28.1535 -7.24244
ltoes -7.23275
169
root 5.6209 16.8986 -16.638 -2.32883 2.19895 -7.95326
lowerback 8.9678 0.91563 3.92811
upperback 1.32041 1.65917 1.5423
thorax -3.59108 0.781448 -0.804842
lowerneck -20.7859 0.08215 -2.67307
upperneck 19.5075 -0.666799 6.8402
head 9.64358 0.299769 2.74522
rclavicle 3.77691e-015 2.38542e-015
rhumerus -29.06 -16.2989 295.593
rradius 30.6821
rwrist 46.745
rhand -34.6865 -18.7089
rfingers 7.12502
rthumb -7.8422 -48.5434
lclavicle 3.77691e-015 2.38542e-015
lhumerus -214.308 -178.242 250.154
lradius 15.3964
lwrist -32.5815
lhand -39.8662 11.7581
lfingers 7.12502
lthumb -12.8388 41.3432
rfemur 11.7609 -16.6561 14.5779
rtibia 7.20914
rfoot -8.04518 -8.89043
rtoes -7.0995
lfemur 4.41677 14.394 -5.28486
ltibia 25.2594
lfoot -27.912 -7.82426
ltoes -6.99565
170
root 5.64033 16.9202 -16.6546 -2.20121 2.15085 -7.89368
lowerback 8.5836 0.903802 4.02678
upperback 1.24995 1.63153 1.46738
thorax -3.44634 0.76808 -0.927145
lowerneck -20.7982 0.138153 -2.5671
upperneck 19.9981 -0.648885 6.84669
head 9.81828 0.322557 2.74397
rclavicle -2.4202e-014 -3.06128e-014
rhumerus -26.9504 -16.9408 294.135
rradius 30.6776
rwrist 45.626
rhand -35.2417 -20.0236
rfingers 7.12502
rthumb -8.37806 -49.8374
lclavicle -2.4202e-014 -3.06128e-014
lhumerus -212.055 -179.689 250.476
lradius 15.3151
lwrist -33.6645
lhand -40.5101 12.2376
lfingers 7.12502
lthumb -13.4595 41.7827
rfemur 11.5797 -16.5859 14.5118
rtibia 7.10247
rfoot -7.62336 -8.82308
rtoes -6.4195
lfemur 4.21352 13.9661 -5.50282
ltibia 25.3043
lfoot -27.5405 -7.82636
ltoes -7.04856
171
root 5.66243 16.9555 -16.6781 -2.06649 2.20965 -8.05386
lowerback 8.15326 0.938353 4.40961
upperback 1.22865 1.68406 1.35307
thorax -3.2115 0.793548 -1.25602
lowerneck -21.0214 0.111696 -2.37658
upperneck 20.6317 -0.824084 7.0322
head 10.0967 0.290171 2.77135
rclavicle -9.0944e-015 3.57812e-015
rhumerus -24.9158 -17.3113 292.408
rradius 30.7583
rwrist 44.0775
rhand -35.4849 -21.2464
rfingers 7.12502
rthumb -8.61277 -51.0507
lclavicle -9.0944e-015 3.57812e-015
lhumerus -209.805 -178.882 251.744
lradius 15.7766
lwrist -32.4669
lhand -40.9525 12.5701
lfingers 7.12502
lthumb -13.8859 42.0865
rfemur 11.2704 -16.6358 14.6857
rtibia 7.12744
rfoot -7.02391 -8.67815
rtoes -6.33693
lfemur 3.83953 13.8337 -5.47823
ltibia 25.3754
lfoot -27.0884 -7.94322
ltoes -7.2257
